<svg width="308" height="20" viewBox="0 0 308 20" fill="none" xmlns="http://www.w3.org/2000/svg">
<rect width="20" height="20" rx="10" fill="white"/>
<path d="M6.62835 8.966C6.60968 8.406 6.67502 7.888 6.82435 7.412C6.97368 6.92667 7.19768 6.50667 7.49635 6.152C7.79502 5.788 8.16835 5.508 8.61635 5.312C9.07369 5.10667 9.59635 5.004 10.1844 5.004C10.6324 5.004 11.057 5.074 11.4584 5.214C11.869 5.354 12.2284 5.55467 12.5364 5.816C12.8444 6.07733 13.087 6.39933 13.2644 6.782C13.451 7.16467 13.5444 7.594 13.5444 8.07C13.5444 8.56467 13.465 8.98933 13.3064 9.344C13.1477 9.69867 12.9377 10.016 12.6764 10.296C12.415 10.5667 12.1164 10.814 11.7804 11.038C11.4537 11.262 11.1224 11.486 10.7864 11.71C10.4504 11.9247 10.1237 12.158 9.80635 12.41C9.48902 12.662 9.20902 12.956 8.96635 13.292H13.6004V15H6.40435C6.40435 14.4307 6.48368 13.936 6.64235 13.516C6.81035 13.096 7.03435 12.7227 7.31435 12.396C7.59435 12.06 7.92102 11.752 8.29435 11.472C8.67702 11.192 9.07835 10.9073 9.49835 10.618C9.71302 10.4687 9.94169 10.3193 10.1844 10.17C10.427 10.0113 10.6464 9.83867 10.8424 9.652C11.0477 9.46533 11.2157 9.25533 11.3464 9.022C11.4864 8.78867 11.5564 8.52267 11.5564 8.224C11.5564 7.748 11.4164 7.37933 11.1364 7.118C10.8657 6.84733 10.5157 6.712 10.0864 6.712C9.79702 6.712 9.54969 6.782 9.34435 6.922C9.14835 7.05267 8.98969 7.23 8.86835 7.454C8.74702 7.66867 8.65835 7.91133 8.60235 8.182C8.55568 8.44333 8.53235 8.70467 8.53235 8.966H6.62835Z" fill="#131313"/>
<path d="M27.3908 4.576H35.2788V5.856H28.9108V9.488H34.8468V10.768H28.9108V14.72H35.3268V16H27.3908V4.576ZM37.1401 7.728H42.8041V8.928H38.5001V16H37.1401V7.728ZM47.6173 16.176C46.956 16.176 46.3746 16.0693 45.8733 15.856C45.3826 15.632 44.9666 15.328 44.6253 14.944C44.284 14.5493 44.028 14.0907 43.8573 13.568C43.6866 13.0453 43.6013 12.48 43.6013 11.872C43.6013 11.264 43.6866 10.6987 43.8573 10.176C44.028 9.64267 44.284 9.184 44.6253 8.8C44.9666 8.40533 45.3826 8.096 45.8733 7.872C46.3746 7.648 46.956 7.536 47.6173 7.536C48.268 7.536 48.844 7.648 49.3453 7.872C49.8466 8.096 50.268 8.40533 50.6093 8.8C50.9506 9.184 51.2066 9.64267 51.3773 10.176C51.548 10.6987 51.6333 11.264 51.6333 11.872C51.6333 12.48 51.548 13.0453 51.3773 13.568C51.2066 14.0907 50.9506 14.5493 50.6093 14.944C50.268 15.328 49.8466 15.632 49.3453 15.856C48.844 16.0693 48.268 16.176 47.6173 16.176ZM47.6173 14.992C47.9693 14.992 48.3 14.9227 48.6093 14.784C48.9293 14.6453 49.2066 14.448 49.4413 14.192C49.676 13.9253 49.8573 13.6 49.9853 13.216C50.124 12.8213 50.1933 12.3733 50.1933 11.872C50.1933 11.3707 50.124 10.928 49.9853 10.544C49.8573 10.1493 49.676 9.81867 49.4413 9.552C49.2066 9.28533 48.9293 9.08267 48.6093 8.944C48.3 8.80533 47.9693 8.736 47.6173 8.736C47.2653 8.736 46.9293 8.80533 46.6093 8.944C46.3 9.08267 46.028 9.28533 45.7933 9.552C45.5586 9.81867 45.372 10.1493 45.2333 10.544C45.1053 10.928 45.0413 11.3707 45.0413 11.872C45.0413 12.3733 45.1053 12.8213 45.2333 13.216C45.372 13.6 45.5586 13.9253 45.7933 14.192C46.028 14.448 46.3 14.6453 46.6093 14.784C46.9293 14.9227 47.2653 14.992 47.6173 14.992ZM53.4448 7.728H54.8048V8.848H54.8368C55.0608 8.38933 55.4128 8.05867 55.8928 7.856C56.3728 7.64267 56.9008 7.536 57.4768 7.536C58.1168 7.536 58.6715 7.65333 59.1408 7.888C59.6208 8.12267 60.0155 8.44267 60.3248 8.848C60.6448 9.24267 60.8848 9.70133 61.0448 10.224C61.2048 10.7467 61.2848 11.3013 61.2848 11.888C61.2848 12.4853 61.2048 13.0453 61.0448 13.568C60.8955 14.08 60.6608 14.5333 60.3408 14.928C60.0315 15.312 59.6368 15.616 59.1568 15.84C58.6875 16.064 58.1381 16.176 57.5088 16.176C57.2955 16.176 57.0661 16.1547 56.8208 16.112C56.5755 16.0693 56.3301 16 56.0848 15.904C55.8395 15.808 55.6048 15.68 55.3808 15.52C55.1675 15.3493 54.9861 15.1413 54.8368 14.896H54.8048V19.152H53.4448V7.728ZM57.3648 14.992C57.8235 14.992 58.2128 14.9013 58.5328 14.72C58.8528 14.5387 59.1088 14.2987 59.3008 14C59.4928 13.7013 59.6315 13.36 59.7168 12.976C59.8021 12.592 59.8448 12.1973 59.8448 11.792C59.8448 11.408 59.7915 11.0347 59.6848 10.672C59.5888 10.2987 59.4341 9.968 59.2208 9.68C59.0181 9.392 58.7515 9.16267 58.4208 8.992C58.1008 8.82133 57.7221 8.736 57.2848 8.736C56.8261 8.736 56.4368 8.82667 56.1168 9.008C55.7968 9.18933 55.5355 9.42933 55.3328 9.728C55.1301 10.016 54.9808 10.3467 54.8848 10.72C54.7995 11.0933 54.7568 11.472 54.7568 11.856C54.7568 12.2613 54.8048 12.656 54.9008 13.04C54.9968 13.4133 55.1461 13.744 55.3488 14.032C55.5621 14.32 55.8341 14.5547 56.1648 14.736C56.4955 14.9067 56.8955 14.992 57.3648 14.992Z" fill="white"/>
<rect x="78" y="2" width="16" height="16" rx="8" fill="white" fill-opacity="0.6"/>
<path d="M86.3758 8.258H86.3428L84.3518 10.931H86.3758V8.258ZM86.3758 12.218H83.1198V10.788L86.4638 6.3H87.8608V10.931H88.8838V12.218H87.8608V14H86.3758V12.218Z" fill="#131313"/>
<path d="M103.696 5.432H104.956L108.304 14H107.044L106.108 11.42H102.484L101.524 14H100.36L103.696 5.432ZM105.748 10.46L104.32 6.464H104.296L102.844 10.46H105.748ZM109.101 7.796H110.121V10.268H113.265V7.796H114.285V14H113.265V11.144H110.121V14H109.101V7.796ZM117.436 8.696H115.216V7.796H120.676V8.696H118.456V14H117.436V8.696ZM124.287 14.132C123.791 14.132 123.355 14.052 122.979 13.892C122.611 13.724 122.299 13.496 122.043 13.208C121.787 12.912 121.595 12.568 121.467 12.176C121.339 11.784 121.275 11.36 121.275 10.904C121.275 10.448 121.339 10.024 121.467 9.632C121.595 9.232 121.787 8.888 122.043 8.6C122.299 8.304 122.611 8.072 122.979 7.904C123.355 7.736 123.791 7.652 124.287 7.652C124.775 7.652 125.207 7.736 125.583 7.904C125.959 8.072 126.275 8.304 126.531 8.6C126.787 8.888 126.979 9.232 127.107 9.632C127.235 10.024 127.299 10.448 127.299 10.904C127.299 11.36 127.235 11.784 127.107 12.176C126.979 12.568 126.787 12.912 126.531 13.208C126.275 13.496 125.959 13.724 125.583 13.892C125.207 14.052 124.775 14.132 124.287 14.132ZM124.287 13.244C124.551 13.244 124.799 13.192 125.031 13.088C125.271 12.984 125.479 12.836 125.655 12.644C125.831 12.444 125.967 12.2 126.063 11.912C126.167 11.616 126.219 11.28 126.219 10.904C126.219 10.528 126.167 10.196 126.063 9.908C125.967 9.612 125.831 9.364 125.655 9.164C125.479 8.964 125.271 8.812 125.031 8.708C124.799 8.604 124.551 8.552 124.287 8.552C124.023 8.552 123.771 8.604 123.531 8.708C123.299 8.812 123.095 8.964 122.919 9.164C122.743 9.364 122.603 9.612 122.499 9.908C122.403 10.196 122.355 10.528 122.355 10.904C122.355 11.28 122.403 11.616 122.499 11.912C122.603 12.2 122.743 12.444 122.919 12.644C123.095 12.836 123.299 12.984 123.531 13.088C123.771 13.192 124.023 13.244 124.287 13.244ZM128.621 7.796H129.641V10.268H132.785V7.796H133.805V14H132.785V11.144H129.641V14H128.621V7.796Z" fill="white" fill-opacity="0.6"/>
<rect x="151" y="2" width="16" height="16" rx="8" fill="white" fill-opacity="0.6"/>
<path d="M161.444 7.587H158.265L157.957 9.336L157.979 9.358C158.192 9.14533 158.419 8.995 158.661 8.907C158.903 8.81167 159.178 8.764 159.486 8.764C159.867 8.764 160.205 8.83367 160.498 8.973C160.791 9.11233 161.037 9.29933 161.235 9.534C161.44 9.76867 161.594 10.0473 161.697 10.37C161.807 10.6853 161.862 11.0227 161.862 11.382C161.862 11.778 161.785 12.1483 161.631 12.493C161.477 12.8303 161.268 13.1237 161.004 13.373C160.747 13.6223 160.447 13.8167 160.102 13.956C159.757 14.088 159.391 14.1503 159.002 14.143C158.628 14.143 158.269 14.0953 157.924 14C157.587 13.8973 157.286 13.7433 157.022 13.538C156.758 13.3327 156.545 13.0797 156.384 12.779C156.23 12.471 156.149 12.1153 156.142 11.712H157.704C157.741 12.064 157.873 12.3463 158.1 12.559C158.327 12.7643 158.617 12.867 158.969 12.867C159.174 12.867 159.358 12.8267 159.519 12.746C159.688 12.658 159.827 12.548 159.937 12.416C160.054 12.2767 160.142 12.119 160.201 11.943C160.267 11.7597 160.3 11.5727 160.3 11.382C160.3 11.184 160.271 10.997 160.212 10.821C160.153 10.645 160.065 10.491 159.948 10.359C159.831 10.227 159.691 10.1243 159.53 10.051C159.369 9.97767 159.182 9.941 158.969 9.941C158.69 9.941 158.463 9.99233 158.287 10.095C158.111 10.1903 157.946 10.3443 157.792 10.557H156.384L157.143 6.3H161.444V7.587Z" fill="#131313"/>
<path d="M181.284 14.192C180.676 14.192 180.132 14.084 179.652 13.868C179.18 13.652 178.776 13.356 178.44 12.98C178.104 12.604 177.84 12.168 177.648 11.672C177.456 11.176 177.344 10.644 177.312 10.076H175.56V14H174.42V5.432H175.56V9.116H177.324C177.38 8.58 177.508 8.076 177.708 7.604C177.908 7.132 178.176 6.72 178.512 6.368C178.848 6.016 179.248 5.74 179.712 5.54C180.176 5.332 180.7 5.228 181.284 5.228C181.916 5.228 182.48 5.352 182.976 5.6C183.472 5.84 183.888 6.164 184.224 6.572C184.568 6.98 184.828 7.456 185.004 8C185.18 8.544 185.268 9.116 185.268 9.716C185.268 10.316 185.18 10.888 185.004 11.432C184.828 11.976 184.568 12.452 184.224 12.86C183.888 13.268 183.472 13.592 182.976 13.832C182.48 14.072 181.916 14.192 181.284 14.192ZM181.284 13.244C181.764 13.244 182.18 13.144 182.532 12.944C182.892 12.744 183.188 12.48 183.42 12.152C183.66 11.824 183.836 11.448 183.948 11.024C184.068 10.6 184.128 10.164 184.128 9.716C184.128 9.268 184.068 8.832 183.948 8.408C183.836 7.984 183.66 7.608 183.42 7.28C183.188 6.952 182.892 6.688 182.532 6.488C182.18 6.288 181.764 6.188 181.284 6.188C180.804 6.188 180.384 6.288 180.024 6.488C179.672 6.688 179.376 6.952 179.136 7.28C178.904 7.608 178.728 7.984 178.608 8.408C178.496 8.832 178.44 9.268 178.44 9.716C178.44 10.164 178.496 10.6 178.608 11.024C178.728 11.448 178.904 11.824 179.136 12.152C179.376 12.48 179.672 12.744 180.024 12.944C180.384 13.144 180.804 13.244 181.284 13.244ZM186.642 7.796H187.662V8.636H187.686C187.854 8.292 188.118 8.044 188.478 7.892C188.838 7.732 189.234 7.652 189.666 7.652C190.146 7.652 190.562 7.74 190.914 7.916C191.274 8.092 191.57 8.332 191.802 8.636C192.042 8.932 192.222 9.276 192.342 9.668C192.462 10.06 192.522 10.476 192.522 10.916C192.522 11.364 192.462 11.784 192.342 12.176C192.23 12.56 192.054 12.9 191.814 13.196C191.582 13.484 191.286 13.712 190.926 13.88C190.574 14.048 190.162 14.132 189.69 14.132C189.53 14.132 189.358 14.116 189.174 14.084C188.99 14.052 188.806 14 188.622 13.928C188.438 13.856 188.262 13.76 188.094 13.64C187.934 13.512 187.798 13.356 187.686 13.172H187.662V16.364H186.642V7.796ZM189.582 13.244C189.926 13.244 190.218 13.176 190.458 13.04C190.698 12.904 190.89 12.724 191.034 12.5C191.178 12.276 191.282 12.02 191.346 11.732C191.41 11.444 191.442 11.148 191.442 10.844C191.442 10.556 191.402 10.276 191.322 10.004C191.25 9.724 191.134 9.476 190.974 9.26C190.822 9.044 190.622 8.872 190.374 8.744C190.134 8.616 189.85 8.552 189.522 8.552C189.178 8.552 188.886 8.62 188.646 8.756C188.406 8.892 188.21 9.072 188.058 9.296C187.906 9.512 187.794 9.76 187.722 10.04C187.658 10.32 187.626 10.604 187.626 10.892C187.626 11.196 187.662 11.492 187.734 11.78C187.806 12.06 187.918 12.308 188.07 12.524C188.23 12.74 188.434 12.916 188.682 13.052C188.93 13.18 189.23 13.244 189.582 13.244ZM195.555 14.132C195.275 14.132 195.011 14.1 194.763 14.036C194.515 13.98 194.295 13.884 194.103 13.748C193.919 13.604 193.771 13.424 193.659 13.208C193.555 12.984 193.503 12.716 193.503 12.404C193.503 12.052 193.563 11.764 193.683 11.54C193.803 11.316 193.959 11.136 194.151 11C194.351 10.856 194.575 10.748 194.823 10.676C195.079 10.604 195.339 10.544 195.603 10.496C195.883 10.44 196.147 10.4 196.395 10.376C196.651 10.344 196.875 10.304 197.067 10.256C197.259 10.2 197.411 10.124 197.523 10.028C197.635 9.924 197.691 9.776 197.691 9.584C197.691 9.36 197.647 9.18 197.559 9.044C197.479 8.908 197.371 8.804 197.235 8.732C197.107 8.66 196.959 8.612 196.791 8.588C196.631 8.564 196.471 8.552 196.311 8.552C195.879 8.552 195.519 8.636 195.231 8.804C194.943 8.964 194.787 9.272 194.763 9.728H193.743C193.759 9.344 193.839 9.02 193.983 8.756C194.127 8.492 194.319 8.28 194.559 8.12C194.799 7.952 195.071 7.832 195.375 7.76C195.687 7.688 196.019 7.652 196.371 7.652C196.651 7.652 196.927 7.672 197.199 7.712C197.479 7.752 197.731 7.836 197.955 7.964C198.179 8.084 198.359 8.256 198.495 8.48C198.631 8.704 198.699 8.996 198.699 9.356V12.548C198.699 12.788 198.711 12.964 198.735 13.076C198.767 13.188 198.863 13.244 199.023 13.244C199.095 13.244 199.199 13.224 199.335 13.184V13.976C199.159 14.08 198.915 14.132 198.603 14.132C198.339 14.132 198.127 14.06 197.967 13.916C197.815 13.764 197.739 13.52 197.739 13.184C197.459 13.52 197.131 13.764 196.755 13.916C196.387 14.06 195.987 14.132 195.555 14.132ZM195.783 13.244C196.119 13.244 196.407 13.2 196.647 13.112C196.887 13.016 197.083 12.9 197.235 12.764C197.387 12.62 197.499 12.468 197.571 12.308C197.643 12.14 197.679 11.984 197.679 11.84V10.796C197.551 10.9 197.383 10.972 197.175 11.012C196.967 11.052 196.747 11.088 196.515 11.12C196.291 11.152 196.063 11.184 195.831 11.216C195.599 11.248 195.391 11.304 195.207 11.384C195.023 11.464 194.871 11.58 194.751 11.732C194.639 11.876 194.583 12.076 194.583 12.332C194.583 12.5 194.615 12.644 194.679 12.764C194.751 12.876 194.839 12.968 194.943 13.04C195.055 13.112 195.183 13.164 195.327 13.196C195.471 13.228 195.623 13.244 195.783 13.244Z" fill="white" fill-opacity="0.6"/>
<rect x="216" y="2" width="16" height="16" rx="8" fill="white" fill-opacity="0.6"/>
<path d="M226.444 7.587H223.265L222.957 9.336L222.979 9.358C223.192 9.14533 223.419 8.995 223.661 8.907C223.903 8.81167 224.178 8.764 224.486 8.764C224.867 8.764 225.205 8.83367 225.498 8.973C225.791 9.11233 226.037 9.29933 226.235 9.534C226.44 9.76867 226.594 10.0473 226.697 10.37C226.807 10.6853 226.862 11.0227 226.862 11.382C226.862 11.778 226.785 12.1483 226.631 12.493C226.477 12.8303 226.268 13.1237 226.004 13.373C225.747 13.6223 225.447 13.8167 225.102 13.956C224.757 14.088 224.391 14.1503 224.002 14.143C223.628 14.143 223.269 14.0953 222.924 14C222.587 13.8973 222.286 13.7433 222.022 13.538C221.758 13.3327 221.545 13.0797 221.384 12.779C221.23 12.471 221.149 12.1153 221.142 11.712H222.704C222.741 12.064 222.873 12.3463 223.1 12.559C223.327 12.7643 223.617 12.867 223.969 12.867C224.174 12.867 224.358 12.8267 224.519 12.746C224.688 12.658 224.827 12.548 224.937 12.416C225.054 12.2767 225.142 12.119 225.201 11.943C225.267 11.7597 225.3 11.5727 225.3 11.382C225.3 11.184 225.271 10.997 225.212 10.821C225.153 10.645 225.065 10.491 224.948 10.359C224.831 10.227 224.691 10.1243 224.53 10.051C224.369 9.97767 224.182 9.941 223.969 9.941C223.69 9.941 223.463 9.99233 223.287 10.095C223.111 10.1903 222.946 10.3443 222.792 10.557H221.384L222.143 6.3H226.444V7.587Z" fill="#131313"/>
<path d="M239.24 5.432H242.348C242.532 5.432 242.728 5.436 242.936 5.444C243.152 5.444 243.364 5.456 243.572 5.48C243.78 5.496 243.976 5.524 244.16 5.564C244.344 5.604 244.496 5.664 244.616 5.744C244.896 5.912 245.132 6.144 245.324 6.44C245.524 6.736 245.624 7.1 245.624 7.532C245.624 7.988 245.512 8.384 245.288 8.72C245.072 9.048 244.76 9.292 244.352 9.452V9.476C244.88 9.588 245.284 9.828 245.564 10.196C245.844 10.564 245.984 11.012 245.984 11.54C245.984 11.852 245.928 12.156 245.816 12.452C245.704 12.748 245.536 13.012 245.312 13.244C245.096 13.468 244.824 13.652 244.496 13.796C244.176 13.932 243.804 14 243.38 14H239.24V5.432ZM243.236 13.04C243.74 13.04 244.132 12.904 244.412 12.632C244.7 12.36 244.844 11.984 244.844 11.504C244.844 11.224 244.792 10.992 244.688 10.808C244.584 10.624 244.444 10.48 244.268 10.376C244.1 10.264 243.904 10.188 243.68 10.148C243.456 10.1 243.224 10.076 242.984 10.076H240.38V13.04H243.236ZM242.66 9.116C243.308 9.116 243.772 9.004 244.052 8.78C244.34 8.548 244.484 8.204 244.484 7.748C244.484 7.452 244.436 7.216 244.34 7.04C244.244 6.856 244.112 6.716 243.944 6.62C243.776 6.524 243.58 6.464 243.356 6.44C243.14 6.408 242.908 6.392 242.66 6.392H240.38V9.116H242.66ZM250.083 14.132C249.587 14.132 249.151 14.052 248.775 13.892C248.407 13.724 248.095 13.496 247.839 13.208C247.583 12.912 247.391 12.568 247.263 12.176C247.135 11.784 247.071 11.36 247.071 10.904C247.071 10.448 247.135 10.024 247.263 9.632C247.391 9.232 247.583 8.888 247.839 8.6C248.095 8.304 248.407 8.072 248.775 7.904C249.151 7.736 249.587 7.652 250.083 7.652C250.571 7.652 251.003 7.736 251.379 7.904C251.755 8.072 252.071 8.304 252.327 8.6C252.583 8.888 252.775 9.232 252.903 9.632C253.031 10.024 253.095 10.448 253.095 10.904C253.095 11.36 253.031 11.784 252.903 12.176C252.775 12.568 252.583 12.912 252.327 13.208C252.071 13.496 251.755 13.724 251.379 13.892C251.003 14.052 250.571 14.132 250.083 14.132ZM250.083 13.244C250.347 13.244 250.595 13.192 250.827 13.088C251.067 12.984 251.275 12.836 251.451 12.644C251.627 12.444 251.763 12.2 251.859 11.912C251.963 11.616 252.015 11.28 252.015 10.904C252.015 10.528 251.963 10.196 251.859 9.908C251.763 9.612 251.627 9.364 251.451 9.164C251.275 8.964 251.067 8.812 250.827 8.708C250.595 8.604 250.347 8.552 250.083 8.552C249.819 8.552 249.567 8.604 249.327 8.708C249.095 8.812 248.891 8.964 248.715 9.164C248.539 9.364 248.399 9.612 248.295 9.908C248.199 10.196 248.151 10.528 248.151 10.904C248.151 11.28 248.199 11.616 248.295 11.912C248.399 12.2 248.539 12.444 248.715 12.644C248.891 12.836 249.095 12.984 249.327 13.088C249.567 13.192 249.819 13.244 250.083 13.244ZM254.418 7.796H257.286C257.558 7.796 257.818 7.816 258.066 7.856C258.322 7.896 258.55 7.972 258.75 8.084C258.95 8.188 259.11 8.34 259.23 8.54C259.35 8.74 259.41 8.996 259.41 9.308C259.41 9.644 259.33 9.916 259.17 10.124C259.01 10.332 258.786 10.504 258.498 10.64V10.652C258.858 10.724 259.142 10.892 259.35 11.156C259.566 11.42 259.674 11.76 259.674 12.176C259.674 12.44 259.626 12.684 259.53 12.908C259.442 13.132 259.314 13.324 259.146 13.484C258.978 13.644 258.778 13.772 258.546 13.868C258.314 13.956 258.062 14 257.79 14H254.418V7.796ZM257.598 13.136C257.934 13.136 258.186 13.04 258.354 12.848C258.53 12.648 258.618 12.4 258.618 12.104C258.618 11.824 258.526 11.6 258.342 11.432C258.158 11.264 257.85 11.18 257.418 11.18H255.426V13.136H257.598ZM257.178 10.34C257.618 10.34 257.922 10.26 258.09 10.1C258.266 9.94 258.354 9.728 258.354 9.464C258.354 9.208 258.27 9.012 258.102 8.876C257.934 8.732 257.626 8.66 257.178 8.66H255.426V10.34H257.178ZM262.734 14.132C262.454 14.132 262.19 14.1 261.942 14.036C261.694 13.98 261.474 13.884 261.282 13.748C261.098 13.604 260.95 13.424 260.838 13.208C260.734 12.984 260.682 12.716 260.682 12.404C260.682 12.052 260.742 11.764 260.862 11.54C260.982 11.316 261.138 11.136 261.33 11C261.53 10.856 261.754 10.748 262.002 10.676C262.258 10.604 262.518 10.544 262.782 10.496C263.062 10.44 263.326 10.4 263.574 10.376C263.83 10.344 264.054 10.304 264.246 10.256C264.438 10.2 264.59 10.124 264.702 10.028C264.814 9.924 264.87 9.776 264.87 9.584C264.87 9.36 264.826 9.18 264.738 9.044C264.658 8.908 264.55 8.804 264.414 8.732C264.286 8.66 264.138 8.612 263.97 8.588C263.81 8.564 263.65 8.552 263.49 8.552C263.058 8.552 262.698 8.636 262.41 8.804C262.122 8.964 261.966 9.272 261.942 9.728H260.922C260.938 9.344 261.018 9.02 261.162 8.756C261.306 8.492 261.498 8.28 261.738 8.12C261.978 7.952 262.25 7.832 262.554 7.76C262.866 7.688 263.198 7.652 263.55 7.652C263.83 7.652 264.106 7.672 264.378 7.712C264.658 7.752 264.91 7.836 265.134 7.964C265.358 8.084 265.538 8.256 265.674 8.48C265.81 8.704 265.878 8.996 265.878 9.356V12.548C265.878 12.788 265.89 12.964 265.914 13.076C265.946 13.188 266.042 13.244 266.202 13.244C266.274 13.244 266.378 13.224 266.514 13.184V13.976C266.338 14.08 266.094 14.132 265.782 14.132C265.518 14.132 265.306 14.06 265.146 13.916C264.994 13.764 264.918 13.52 264.918 13.184C264.638 13.52 264.31 13.764 263.934 13.916C263.566 14.06 263.166 14.132 262.734 14.132ZM262.962 13.244C263.298 13.244 263.586 13.2 263.826 13.112C264.066 13.016 264.262 12.9 264.414 12.764C264.566 12.62 264.678 12.468 264.75 12.308C264.822 12.14 264.858 11.984 264.858 11.84V10.796C264.73 10.9 264.562 10.972 264.354 11.012C264.146 11.052 263.926 11.088 263.694 11.12C263.47 11.152 263.242 11.184 263.01 11.216C262.778 11.248 262.57 11.304 262.386 11.384C262.202 11.464 262.05 11.58 261.93 11.732C261.818 11.876 261.762 12.076 261.762 12.332C261.762 12.5 261.794 12.644 261.858 12.764C261.93 12.876 262.018 12.968 262.122 13.04C262.234 13.112 262.362 13.164 262.506 13.196C262.65 13.228 262.802 13.244 262.962 13.244Z" fill="white" fill-opacity="0.6"/>
</svg>
