<svg width="72" height="31" viewBox="0 0 72 31" fill="none" xmlns="http://www.w3.org/2000/svg">
<rect width="72" height="31" rx="15.5" fill="white"/>
<path d="M14.6 12.12V10.512C16.136 10.352 17.2 10.104 17.792 9.768C18.4 9.416 18.848 8.592 19.136 7.296H20.816V24H18.56V12.12H14.6ZM25.793 15.624C25.793 16.264 25.809 16.984 25.841 17.784C25.889 18.568 26.017 19.312 26.225 20.016C26.449 20.704 26.801 21.288 27.281 21.768C27.761 22.248 28.433 22.488 29.297 22.488C30.161 22.488 30.833 22.248 31.313 21.768C31.793 21.288 32.137 20.704 32.345 20.016C32.569 19.312 32.697 18.568 32.729 17.784C32.777 16.984 32.801 16.264 32.801 15.624C32.801 15.208 32.793 14.752 32.777 14.256C32.777 13.744 32.737 13.24 32.657 12.744C32.593 12.232 32.489 11.736 32.345 11.256C32.217 10.776 32.017 10.36 31.745 10.008C31.489 9.64 31.161 9.344 30.761 9.12C30.361 8.896 29.873 8.784 29.297 8.784C28.721 8.784 28.233 8.896 27.833 9.12C27.433 9.344 27.097 9.64 26.825 10.008C26.569 10.36 26.369 10.776 26.225 11.256C26.097 11.736 25.993 12.232 25.913 12.744C25.849 13.24 25.809 13.744 25.793 14.256C25.793 14.752 25.793 15.208 25.793 15.624ZM23.633 15.648C23.633 15.024 23.649 14.376 23.681 13.704C23.713 13.032 23.793 12.376 23.921 11.736C24.049 11.096 24.233 10.488 24.473 9.912C24.713 9.336 25.041 8.832 25.457 8.4C25.873 7.968 26.393 7.624 27.017 7.368C27.657 7.112 28.417 6.984 29.297 6.984C30.177 6.984 30.929 7.112 31.553 7.368C32.193 7.624 32.721 7.968 33.137 8.4C33.553 8.832 33.881 9.336 34.121 9.912C34.361 10.488 34.545 11.096 34.673 11.736C34.801 12.376 34.881 13.032 34.913 13.704C34.945 14.376 34.961 15.024 34.961 15.648C34.961 16.272 34.945 16.92 34.913 17.592C34.881 18.264 34.801 18.92 34.673 19.56C34.545 20.2 34.361 20.808 34.121 21.384C33.881 21.944 33.553 22.44 33.137 22.872C32.721 23.304 32.201 23.648 31.577 23.904C30.953 24.144 30.193 24.264 29.297 24.264C28.417 24.264 27.657 24.144 27.017 23.904C26.393 23.648 25.873 23.304 25.457 22.872C25.041 22.44 24.713 21.944 24.473 21.384C24.233 20.808 24.049 20.2 23.921 19.56C23.793 18.92 23.713 18.264 23.681 17.592C23.649 16.92 23.633 16.272 23.633 15.648Z" fill="#262626"/>
<g clip-path="url(#clip0_368_6238)">
<path d="M50.5 6.3335H45.5V8.00016H50.5V6.3335ZM47.1667 17.1668H48.8333V12.1668H47.1667V17.1668ZM53.8583 11.6585L55.0417 10.4752C54.6833 10.0502 54.2917 9.65016 53.8667 9.30016L52.6833 10.4835C51.3917 9.45016 49.7667 8.8335 48 8.8335C43.8583 8.8335 40.5 12.1918 40.5 16.3335C40.5 20.4752 43.85 23.8335 48 23.8335C52.15 23.8335 55.5 20.4752 55.5 16.3335C55.5 14.5668 54.8833 12.9418 53.8583 11.6585ZM48 22.1668C44.775 22.1668 42.1667 19.5585 42.1667 16.3335C42.1667 13.1085 44.775 10.5002 48 10.5002C51.225 10.5002 53.8333 13.1085 53.8333 16.3335C53.8333 19.5585 51.225 22.1668 48 22.1668Z" fill="black"/>
</g>
<defs>
<clipPath id="clip0_368_6238">
<rect width="20" height="20" fill="white" transform="translate(38 5.5)"/>
</clipPath>
</defs>
</svg>
